<svg xmlns="http://www.w3.org/2000/svg" width="76" height="47" viewBox="0 0 76 47" fill="none"><g clip-path="url(#clip0_1_79)"><path d="M76 47H0V0H54.1684C66.2063 0 76 9.81661 76 21.8824V47Z" fill="#393D32"></path><path d="M42.9539 26.6086H46.3004V28.1756H41.0479V18.4294H46.3004V19.9963H42.9539V22.4843H46.1775V24.0656H42.9539V26.6086Z" fill="#F1E3C8"></path><path d="M8.0304 40.182V30.4358H10.1703C11.8348 30.4358 13.1326 30.8462 14.0658 31.666C14.998 32.4858 15.4646 33.6985 15.4646 35.3017C15.4646 36.905 14.998 38.0395 14.0658 38.8967C13.1337 39.7539 11.8578 40.182 10.2395 40.182H8.03149H8.0304ZM12.6934 32.8765C12.1268 32.3131 11.3177 32.0314 10.2658 32.0314H9.93643V38.5875H10.3613C11.4033 38.5875 12.1949 38.3036 12.734 37.7358C13.2731 37.168 13.5432 36.357 13.5432 35.3028C13.5432 34.2487 13.2599 33.4399 12.6934 32.8765Z" fill="#F1E3C8"></path><path d="M26.1344 40.182H24.2284V30.4358H26.5604C27.7583 30.4358 28.6389 30.6922 29.201 31.2061C29.7632 31.7188 30.0442 32.4253 30.0442 33.3232C30.0442 34.1199 29.7632 34.8011 29.201 35.3645C28.6389 35.9279 27.7901 36.2096 26.6571 36.2096H26.1355V40.182H26.1344ZM26.1344 34.6701H26.5319C27.6013 34.6701 28.1371 34.2123 28.1371 33.2957C28.1371 32.3791 27.598 31.962 26.5187 31.962H26.1344V34.6701Z" fill="#F1E3C8"></path><path d="M32.4916 31.7013C33.4743 30.7483 34.6842 30.2719 36.1193 30.2719C37.5543 30.2719 38.7983 30.7417 39.7677 31.6804C40.7372 32.6201 41.2214 33.8272 41.2214 35.3028C41.2214 36.7785 40.7317 37.9768 39.7535 38.9242C38.7752 39.8728 37.5642 40.3471 36.1193 40.3471C34.6744 40.3471 33.4512 39.8838 32.4774 38.9584C31.5035 38.0329 31.0171 36.8137 31.0171 35.3017C31.0171 33.7898 31.509 32.6531 32.4916 31.7002V31.7013ZM33.8498 37.749C34.4482 38.3718 35.2058 38.6833 36.1193 38.6833C37.0327 38.6833 37.8013 38.3718 38.3964 37.749C38.9904 37.1262 39.2879 36.3108 39.2879 35.3028C39.2879 34.2949 38.9904 33.4817 38.3964 32.8633C37.8024 32.2449 37.0437 31.9356 36.1193 31.9356C35.1948 31.9356 34.4482 32.2449 33.8498 32.8633C33.2514 33.4817 32.9517 34.2949 32.9517 35.3028C32.9517 36.3108 33.2514 37.1262 33.8498 37.749Z" fill="#F1E3C8"></path><path d="M41.1017 30.4369H47.5071V32.0038H45.2574V40.182H43.3646V32.0038H41.1017V30.4369Z" fill="#F1E3C8"></path><path d="M9.24141 25.3068C9.26008 25.3431 9.28204 25.3916 9.30949 25.451C9.33694 25.5104 9.40062 25.6193 9.50053 25.7789C9.60044 25.9385 9.71024 26.0771 9.82772 26.1959C9.9463 26.3148 10.1055 26.4215 10.3053 26.5173C10.5052 26.613 10.7149 26.6614 10.9334 26.6614C11.2792 26.6614 11.5405 26.5701 11.7184 26.3874C11.8963 26.2047 11.9841 25.9451 11.9841 25.6072C11.9841 25.3332 11.9138 25.0944 11.7722 24.8887C11.6306 24.6829 11.4472 24.5145 11.2188 24.3825C10.9915 24.2504 10.7412 24.1206 10.4678 23.993C10.1944 23.8653 9.92434 23.7212 9.65534 23.5616C9.38744 23.402 9.13931 23.2194 8.91093 23.0147C8.68366 22.8089 8.4992 22.5338 8.35757 22.1872C8.21703 21.8406 8.14566 21.4389 8.14566 20.9834C8.14566 20.1438 8.41137 19.478 8.94387 18.9862C9.47638 18.4932 10.1615 18.2478 10.9981 18.2478C11.4351 18.2478 11.8326 18.3182 12.1927 18.4602C12.5517 18.6021 12.8317 18.7727 13.0326 18.973C13.2325 19.1732 13.4037 19.3768 13.5443 19.5815C13.6859 19.7862 13.7781 19.9578 13.8243 20.0943L13.8923 20.3132L12.4859 21.0384C12.4771 21.0109 12.4606 20.9702 12.4375 20.9152C12.4145 20.8601 12.3607 20.7644 12.2739 20.628C12.1872 20.4915 12.0939 20.3727 11.994 20.2725C11.8941 20.1724 11.7568 20.0789 11.5844 19.9919C11.411 19.905 11.2298 19.8621 11.0388 19.8621C10.739 19.8621 10.4931 19.9534 10.302 20.1361C10.111 20.3187 10.0155 20.5828 10.0155 20.9295C10.0155 21.2761 10.1472 21.5886 10.4118 21.8395C10.6753 22.0904 10.997 22.3028 11.3747 22.4755C11.7524 22.6494 12.1301 22.8408 12.5078 23.0499C12.8855 23.2601 13.2061 23.5649 13.4707 23.9665C13.7342 24.3682 13.8671 24.8601 13.8671 25.4444C13.8671 26.4116 13.5893 27.1247 13.0348 27.5857C12.4793 28.0468 11.8018 28.2768 11.0003 28.2768C10.5183 28.2768 10.0791 28.202 9.68279 28.0512C9.28643 27.9005 8.9801 27.7178 8.76161 27.5043C8.54312 27.2897 8.35647 27.0752 8.20166 26.8617C8.04685 26.6471 7.94254 26.4622 7.88764 26.3071L7.8053 26.0881L9.23812 25.3079L9.24141 25.3068Z" fill="#F1E3C8"></path><path d="M14.5237 18.4107H20.8984V19.97H18.6597V28.1107H16.7756V19.97H14.5226V18.4107H14.5237Z" fill="#F1E3C8"></path><path d="M39.3834 23.1721C39.3834 23.6738 39.3428 24.1503 39.2605 24.6015C39.1781 25.0526 39.0288 25.5093 38.8103 25.9693C38.5918 26.4303 38.314 26.8243 37.9781 27.1522C37.641 27.4801 37.1908 27.7497 36.6265 27.9599C36.0621 28.1701 35.4165 28.2746 34.6886 28.2746C33.2503 28.2746 32.0425 27.83 31.0643 26.9409C30.086 26.0518 29.5963 24.8315 29.5963 23.281C29.5963 21.7306 30.0827 20.5949 31.0566 19.6552C32.0305 18.7155 33.2316 18.2456 34.6601 18.2456C35.1882 18.2456 35.6866 18.3094 36.1555 18.4371C36.6243 18.5647 37.0064 18.7199 37.3017 18.9025C37.5971 19.0852 37.8551 19.2679 38.0736 19.4494C38.2921 19.6321 38.4469 19.7873 38.538 19.9149L38.6884 20.1064L37.4598 21.3245C37.4324 21.2882 37.3939 21.2376 37.3434 21.1738C37.2929 21.1099 37.1776 20.9955 36.9954 20.8315C36.8131 20.6676 36.6221 20.5212 36.4223 20.3936C36.2224 20.2659 35.9622 20.1515 35.6438 20.0514C35.3254 19.9512 34.9971 19.9006 34.6612 19.9006C33.751 19.9006 33 20.2021 32.4093 20.804C31.8175 21.4059 31.5221 22.2224 31.5221 23.2535C31.5221 24.2846 31.8273 25.1143 32.4367 25.7162C33.0461 26.3181 33.8113 26.6196 34.7303 26.6196C35.1585 26.6196 35.5406 26.5602 35.8766 26.4413C36.2137 26.3225 36.475 26.1794 36.6616 26.01C36.8483 25.8416 37.0053 25.6402 37.1326 25.4081C37.26 25.1759 37.3467 24.9635 37.3917 24.772C37.4368 24.5806 37.4642 24.3847 37.4741 24.1833H33.5841V22.6648H39.3724C39.3812 22.7737 39.3856 22.9432 39.3856 23.171L39.3834 23.1721Z" fill="#F1E3C8"></path><path d="M53.3899 22.9465C53.0528 23.434 52.5346 23.774 51.8341 23.9655L54.6053 28.1107H52.3392L50.0049 24.157L50.0181 28.1107H48.1066V18.4107H50.4276C51.62 18.4107 52.4962 18.6616 53.055 19.1634C53.615 19.6652 53.895 20.3496 53.895 21.2156C53.895 21.8813 53.727 22.458 53.3899 22.9465ZM50.0049 22.5845H50.4013C51.0019 22.5845 51.4158 22.4657 51.6431 22.2291C51.8703 21.9914 51.9845 21.6547 51.9845 21.2167C51.9845 20.8151 51.8703 20.5004 51.6431 20.2726C51.4158 20.0448 50.992 19.9303 50.3738 19.9303H50.0049V22.5845Z" fill="#F1E3C8"></path><path d="M29.1373 28.1118H27.1445L25.4789 23.2414L24.8103 20.9977C24.6006 21.7273 24.3645 22.4756 24.0999 23.2414L22.4343 28.1118H20.4822L24.0318 18.4118H25.6294L29.1373 28.1118Z" fill="#F1E3C8"></path><path d="M16.7689 40.1357H21.9974V38.5765H18.6662V38.5754H16.7689V40.1357Z" fill="#F1E3C8"></path><path d="M16.7689 36.0467H18.6662V36.0456H21.8744V34.4721H18.6662V34.4688H16.7689V36.0467Z" fill="#F1E3C8"></path><path d="M16.7557 36.0126H18.3247V36.609H18.328V36.9611" fill="#F1E3C8"></path><path d="M16.7557 31.994H18.3247V32.5893H18.328V32.9425" fill="#F1E3C8"></path><path d="M21.9974 31.9961V30.4358H16.7689V31.9961H18.6662H21.9974Z" fill="#F1E3C8"></path></g><defs><clipPath id="clip0_1_79"><rect width="76" height="47" fill="white"></rect></clipPath></defs></svg>