<svg xmlns="http://www.w3.org/2000/svg" width="124" height="77" viewBox="0 0 124 77" fill="none"><g clip-path="url(#clip0_1_19)"><path d="M124 77H0V0H88.38C108.021 0 124 16.0825 124 35.8499V77ZM5.14845 71.817H118.852V35.8481C118.852 18.9381 105.181 5.18117 88.38 5.18117H5.14845V71.817Z" fill="#393D32"></path><path d="M70.0828 43.5928H75.5429V46.16H66.9729V30.1928H75.5429V32.76H70.0828V36.836H75.3423V39.4266H70.0828V43.5928Z" fill="#393D32"></path><path d="M13.1022 65.83V49.8629H16.5936C19.3093 49.8629 21.4268 50.5353 22.9494 51.8784C24.4703 53.2214 25.2317 55.2081 25.2317 57.8347C25.2317 60.4614 24.4703 62.32 22.9494 63.7244C21.4286 65.1287 19.347 65.83 16.7064 65.83H13.104H13.1022ZM20.7102 53.8614C19.7858 52.9384 18.4656 52.4769 16.7494 52.4769H16.212V63.2178H16.9053C18.6053 63.2178 19.8969 62.7527 20.7765 61.8225C21.6561 60.8922 22.0967 59.5636 22.0967 57.8365C22.0967 56.1095 21.6346 54.7844 20.7102 53.8614Z" fill="#393D32"></path><path d="M42.6405 65.83H39.5306V49.8629H43.3356C45.29 49.8629 46.7267 50.2829 47.6438 51.1248C48.561 51.9649 49.0196 53.1223 49.0196 54.5933C49.0196 55.8985 48.561 57.0145 47.6438 57.9375C46.7267 58.8605 45.3419 59.322 43.4932 59.322H42.6423V65.83H42.6405ZM42.6405 56.7999H43.289C45.0338 56.7999 45.908 56.05 45.908 54.5483C45.908 53.0466 45.0284 52.3633 43.2675 52.3633H42.6405V56.7999Z" fill="#393D32"></path><path d="M53.0126 51.9361C54.6159 50.3749 56.5901 49.5943 58.9314 49.5943C61.2727 49.5943 63.3024 50.364 64.8842 51.9018C66.466 53.4414 67.256 55.419 67.256 57.8365C67.256 60.254 66.457 62.2173 64.8609 63.7695C63.2648 65.3234 61.2889 66.1004 58.9314 66.1004C56.5739 66.1004 54.5783 65.3415 52.9894 63.8253C51.4004 62.3092 50.6068 60.3117 50.6068 57.8347C50.6068 55.3577 51.4094 53.4954 53.0126 51.9342V51.9361ZM55.2286 61.8441C56.2049 62.8645 57.441 63.3746 58.9314 63.3746C60.4218 63.3746 61.6758 62.8645 62.6467 61.8441C63.6159 60.8237 64.1013 59.4879 64.1013 57.8365C64.1013 56.1852 63.6159 54.8529 62.6467 53.8398C61.6776 52.8266 60.4397 52.32 58.9314 52.32C57.423 52.32 56.2049 52.8266 55.2286 53.8398C54.2523 54.8529 53.7632 56.1852 53.7632 57.8365C53.7632 59.4879 54.2523 60.8237 55.2286 61.8441Z" fill="#393D32"></path><path d="M67.0607 49.8647H77.5116V52.4318H73.8411V65.83H70.7527V52.4318H67.0607V49.8647Z" fill="#393D32"></path><path d="M15.0781 41.4602C15.1086 41.5196 15.1444 41.599 15.1892 41.6963C15.234 41.7937 15.3379 41.9721 15.5009 42.2335C15.6639 42.4949 15.843 42.7221 16.0347 42.9168C16.2282 43.1115 16.4879 43.2864 16.814 43.4432C17.14 43.6 17.4822 43.6794 17.8387 43.6794C18.4029 43.6794 18.8293 43.5297 19.1195 43.2305C19.4097 42.9312 19.553 42.5058 19.553 41.9523C19.553 41.5034 19.4384 41.1122 19.2073 40.7751C18.9762 40.438 18.677 40.1622 18.3044 39.9458C17.9336 39.7295 17.5252 39.5168 17.0791 39.3076C16.633 39.0985 16.1924 38.8624 15.7535 38.601C15.3164 38.3396 14.9115 38.0403 14.5389 37.705C14.1681 37.3679 13.8671 36.9172 13.6361 36.3493C13.4068 35.7814 13.2903 35.1234 13.2903 34.3771C13.2903 33.0015 13.7238 31.9109 14.5927 31.105C15.4615 30.2974 16.5793 29.8954 17.9443 29.8954C18.6573 29.8954 19.3058 30.0107 19.8934 30.2433C20.4792 30.4759 20.936 30.7553 21.2638 31.0834C21.5898 31.4115 21.8693 31.745 22.0986 32.0803C22.3297 32.4156 22.4801 32.6969 22.5554 32.9204L22.6665 33.2792L20.3717 34.4672C20.3573 34.4221 20.3305 34.3554 20.2929 34.2653C20.2552 34.1752 20.1675 34.0183 20.0259 33.7948C19.8844 33.5712 19.7322 33.3765 19.5691 33.2125C19.4061 33.0484 19.1822 32.8952 18.9009 32.7528C18.6179 32.6103 18.3223 32.54 18.0106 32.54C17.5216 32.54 17.1203 32.6897 16.8086 32.9889C16.4969 33.2882 16.3411 33.7209 16.3411 34.2887C16.3411 34.8566 16.556 35.3686 16.9877 35.7796C17.4177 36.1907 17.9426 36.5386 18.5588 36.8216C19.175 37.1065 19.7913 37.4201 20.4075 37.7627C21.0237 38.107 21.5468 38.6064 21.9786 39.2644C22.4085 39.9224 22.6252 40.7282 22.6252 41.6855C22.6252 43.2701 22.172 44.4383 21.2674 45.1937C20.3609 45.9491 19.2556 46.3258 17.9479 46.3258C17.1615 46.3258 16.445 46.2032 15.7983 45.9563C15.1516 45.7093 14.6518 45.41 14.2953 45.0603C13.9388 44.7087 13.6343 44.3572 13.3817 44.0075C13.1291 43.6559 12.9589 43.3531 12.8693 43.0989L12.735 42.7401L15.0727 41.462L15.0781 41.4602Z" fill="#393D32"></path><path d="M23.6965 30.1622H34.0973V32.7167H30.4447V46.0536H27.3706V32.7167H23.6947V30.1622H23.6965Z" fill="#393D32"></path><path d="M64.2571 37.9628C64.2571 38.7848 64.1909 39.5654 64.0565 40.3046C63.9222 41.0437 63.6785 41.7919 63.322 42.5454C62.9656 43.3008 62.5123 43.9462 61.9642 44.4834C61.4142 45.0206 60.6797 45.4623 59.759 45.8066C58.8382 46.151 57.7849 46.3222 56.5972 46.3222C54.2504 46.3222 52.2799 45.5939 50.6838 44.1373C49.0877 42.6806 48.2887 40.6814 48.2887 38.1412C48.2887 35.6011 49.0823 33.7407 50.6712 32.2011C52.2602 30.6615 54.22 29.8918 56.5506 29.8918C57.4122 29.8918 58.2255 29.9963 58.9905 30.2054C59.7554 30.4146 60.3788 30.6688 60.8607 30.968C61.3426 31.2673 61.7635 31.5665 62.12 31.864C62.4765 32.1633 62.7291 32.4174 62.8778 32.6266L63.1232 32.9403L61.1186 34.9359C61.0738 34.8764 61.0111 34.7935 60.9287 34.6889C60.8463 34.5844 60.6582 34.3969 60.3609 34.1283C60.0635 33.8597 59.7518 33.6199 59.4258 33.4108C59.0997 33.2017 58.6752 33.0142 58.1557 32.8501C57.6362 32.6861 57.1005 32.6031 56.5524 32.6031C55.0673 32.6031 53.842 33.0971 52.8782 34.0832C51.9127 35.0693 51.4308 36.407 51.4308 38.0962C51.4308 39.7854 51.9288 41.1447 52.923 42.1308C53.9172 43.1169 55.1658 43.6109 56.6652 43.6109C57.3639 43.6109 57.9873 43.5135 58.5354 43.3188C59.0854 43.1241 59.5118 42.8897 59.8163 42.6121C60.1208 42.3363 60.377 42.0064 60.5848 41.626C60.7926 41.2456 60.9341 40.8977 61.0076 40.584C61.081 40.2703 61.1258 39.9494 61.1419 39.6195H54.795V37.1317H64.2392C64.2536 37.3102 64.2607 37.5878 64.2607 37.961L64.2571 37.9628Z" fill="#393D32"></path><path d="M87.1099 37.5932C86.56 38.3918 85.7144 38.9489 84.5715 39.2626L89.093 46.0536H85.3956L81.5871 39.5763L81.6086 46.0536H78.4897V30.1622H82.2767C84.2222 30.1622 85.6517 30.5732 86.5635 31.3953C87.4771 32.2173 87.934 33.3387 87.934 34.7574C87.934 35.8481 87.6599 36.7928 87.1099 37.5932ZM81.5871 37.0001H82.2337C83.2136 37.0001 83.889 36.8054 84.2598 36.4178C84.6306 36.0284 84.8169 35.4768 84.8169 34.7592C84.8169 34.1012 84.6306 33.5856 84.2598 33.2125C83.889 32.8393 83.1975 32.6518 82.189 32.6518H81.5871V37.0001Z" fill="#393D32"></path><path d="M47.5399 46.0554H44.2885L41.5709 38.0764L40.48 34.4005C40.1378 35.5957 39.7527 36.8216 39.321 38.0764L36.6034 46.0554H33.4183L39.2099 30.164H41.8164L47.5399 46.0554Z" fill="#393D32"></path><path d="M27.3599 65.7543H35.8905V63.1998H30.4554V63.198H27.3599V65.7543Z" fill="#393D32"></path><path d="M27.3599 59.0552H30.4554V59.0534H35.6898V56.4754H30.4554V56.47H27.3599V59.0552Z" fill="#393D32"></path><path d="M27.3384 58.9993H29.8983V59.9764H29.9036V60.5533" fill="#393D32"></path><path d="M27.3384 52.4156H29.8983V53.3909H29.9036V53.9696" fill="#393D32"></path><path d="M35.8905 52.4192V49.8629H27.3599V52.4192H30.4554H35.8905Z" fill="#393D32"></path></g><defs><clipPath id="clip0_1_19"><rect width="124" height="77" fill="white"></rect></clipPath></defs></svg>